# xmcd
#
# Track frame offsets: 
#        150
#        25562
#        45090
#        63942
#        87785
#        108862
#        129987
#        154170
#        181462
#        203957
#        227282
#
# Disc length: 3332 seconds
#
# Revision: 2
# Processed by: cddbd v1.5.2PL0 Copyright (c) Steve Scherf et al.
# Submitted via: ExactAudioCopy v1.3
#
DISCID=760d020b
DTITLE=D´LAVANCE - D´LAVANCE
DYEAR=1990
DGENRE=Funk
TTITLE0=Itchin´ In My Pants
TTITLE1=Open Your Eyes
TTITLE2=Does It Feel Good
TTITLE3=Ain´T Nobody Like Her Body
TTITLE4=I Feel U Coming´On
TTITLE5=No One Else Will Do
TTITLE6=Let´S Get To It
TTITLE7=Only You Can Get Me Off
TTITLE8=I Could Never Be Your Friend
TTITLE9=You Got It Going´On
TTITLE10=Beat Seekers
EXTD=
EXTT0=
EXTT1=
EXTT2=
EXTT3=
EXTT4=
EXTT5=
EXTT6=
EXTT7=
EXTT8=
EXTT9=
EXTT10=
PLAYORDER=
